<?xml version="1.0" encoding="UTF-8" standalone="no"?>
<!-- Created with Inkscape (http://www.inkscape.org/) -->

<svg
   width="15.999999"
   height="16.000002"
   viewBox="0 0 4.2333331 4.2333339"
   version="1.1"
   id="svg1"
   xml:space="preserve"
   inkscape:version="1.4.2 (ebf0e940d0, 2025-05-08)"
   sodipodi:docname="src.svg"
   inkscape:export-filename="16.svg"
   inkscape:export-xdpi="96"
   inkscape:export-ydpi="96"
   xmlns:inkscape="http://www.inkscape.org/namespaces/inkscape"
   xmlns:sodipodi="http://sodipodi.sourceforge.net/DTD/sodipodi-0.dtd"
   xmlns:xlink="http://www.w3.org/1999/xlink"
   xmlns="http://www.w3.org/2000/svg"
   xmlns:svg="http://www.w3.org/2000/svg"><sodipodi:namedview
     id="namedview1"
     pagecolor="#ffffff"
     bordercolor="#000000"
     borderopacity="0.25"
     inkscape:showpageshadow="2"
     inkscape:pageopacity="0.0"
     inkscape:pagecheckerboard="0"
     inkscape:deskcolor="#d1d1d1"
     inkscape:document-units="px"
     showgrid="false"
     inkscape:current-layer="svg1"><inkscape:page
       x="0"
       y="0"
       width="4.2333331"
       height="4.2333341"
       id="page2"
       margin="0"
       bleed="0" /><inkscape:grid
       id="grid14"
       units="px"
       originx="0"
       originy="0"
       spacingx="0.13229167"
       spacingy="0.13229167"
       empcolor="#0099e5"
       empopacity="0.30196078"
       color="#0099e5"
       opacity="0.078431373"
       empspacing="2"
       enabled="true"
       visible="false" /></sodipodi:namedview><defs
     id="defs1"><linearGradient
       id="linearGradient25"><stop
         id="stop21-7"
         style="stop-color:#ffffff;stop-opacity:1"
         offset="0" /><stop
         id="stop22-6"
         style="stop-color:#ffffff;stop-opacity:0.23529412"
         offset="0.075" /><stop
         id="stop23-5"
         style="stop-color:#ffffff;stop-opacity:0.15686275"
         offset="0.5625" /><stop
         id="stop24"
         style="stop-color:#ffffff;stop-opacity:0.5;"
         offset="0.75" /><stop
         id="stop25-6"
         style="stop-color:#ffffff;stop-opacity:0.39215687"
         offset="1" /></linearGradient><linearGradient
       inkscape:collect="always"
       xlink:href="#linearGradient18-6"
       id="linearGradient11"
       x1="8"
       y1="1.5"
       x2="8"
       y2="14.5"
       gradientUnits="userSpaceOnUse"
       gradientTransform="matrix(0.26458333,0,0,0.26458334,1.0987037e-5,0)" /><linearGradient
       inkscape:collect="always"
       xlink:href="#linearGradient25"
       id="linearGradient43-8"
       x1="8"
       y1="3"
       x2="8"
       y2="11"
       gradientUnits="userSpaceOnUse"
       gradientTransform="matrix(0.26458333,0,0,0.26458334,1.0987037e-5,0)" /><linearGradient
       inkscape:collect="always"
       xlink:href="#linearGradient17-5"
       id="linearGradient28"
       gradientUnits="userSpaceOnUse"
       x1="8"
       y1="1.5"
       x2="8"
       y2="14.5"
       gradientTransform="matrix(0.26458333,0,0,0.26458334,1.0987037e-5,0)" /><linearGradient
       id="linearGradient18-6"
       inkscape:collect="always"><stop
         style="stop-color:#ffa154;stop-opacity:1;"
         offset="0"
         id="stop10-2" /><stop
         style="stop-color:#f37329;stop-opacity:1;"
         offset="0.39903849"
         id="stop26-6" /><stop
         style="stop-color:#f37329;stop-opacity:1;"
         offset="0.61148691"
         id="stop25-1" /><stop
         style="stop-color:#ffa154;stop-opacity:1;"
         offset="1"
         id="stop16-8" /></linearGradient><linearGradient
       id="linearGradient17-5"
       inkscape:collect="always"><stop
         style="stop-color:#ffa154;stop-opacity:1;"
         offset="0"
         id="stop18-9" /><stop
         style="stop-color:#f37329;stop-opacity:1;"
         offset="1"
         id="stop19-2" /></linearGradient></defs><rect
     style="opacity:1;fill:url(#linearGradient28);stroke-width:0.529167;stroke-linecap:round;stroke-linejoin:round"
     id="rect3"
     width="3.4395833"
     height="3.4395835"
     x="0.39688209"
     y="0.39687502"
     rx="0.52916664"
     ry="0.5291667" /><path
     id="rect7"
     style="opacity:0.5;fill:none;stroke:#a62100;stroke-width:0.264583;stroke-linecap:round;stroke-linejoin:round"
     d="m 3.8364609,2.7781251 v 0.5291667 c 0,0.2931583 -0.23601,0.5291666 -0.52916,0.5291666 H 0.92605099 c -0.29316,0 -0.52917,-0.2360083 -0.52917,-0.5291666 V 2.7781251"
     sodipodi:nodetypes="cssssc" /><path
     id="path21"
     style="opacity:1;fill:url(#linearGradient11);stroke:none;stroke-width:0.264583;stroke-linecap:round;stroke-linejoin:round"
     d="M 0.92605099,0.39687501 H 3.3073009 c 0.29315,0 0.52916,0.23600834 0.52916,0.52916668 0,0.42520161 0.0854,1.10665011 0.18762,1.56390701 0.0359,0.1607681 -0.0192,0.3843424 -0.1622,0.465352 -0.45937,0.2601629 -1.19412,0.3519911 -1.74521,0.3519911 -0.5511,0 -1.28586991,-0.091832 -1.74522991,-0.3520062 -0.14302,-0.081004 -0.19809,-0.3046183 -0.16215,-0.4654491 0.10219,-0.4572562 0.18759,-1.138628 0.18759,-1.56379481 0,-0.29315834 0.23601,-0.52916668 0.52917,-0.52916668 z"
     sodipodi:nodetypes="ccccccccsc" /><path
     id="rect20"
     style="opacity:0.5;fill:none;stroke:#a62100;stroke-width:0.264583;stroke-linecap:round;stroke-linejoin:miter"
     d="M 0.92605099,0.39687501 H 3.3073009 c 0.29315,0 0.52916,0.23600834 0.52916,0.52916668 0,0.42520051 0.0854,1.10664651 0.18762,1.56390331 0.0359,0.1607702 -0.0192,0.3843474 -0.1622,0.4653575 -0.45937,0.2601614 -1.19412,0.3519893 -1.74521,0.3519893 -0.55111,0 -1.28588991,-0.091835 -1.74525991,-0.3520194 -0.143,-0.081 -0.19806,-0.3045934 -0.16212,-0.4654098 0.10219,-0.4572563 0.18759,-1.138646 0.18759,-1.56382091 0,-0.29315834 0.23601,-0.52916668 0.52917,-0.52916668 z"
     sodipodi:nodetypes="cccccccc" /><path
     id="path32"
     style="opacity:0.5;fill:none;stroke:url(#linearGradient43-8);stroke-width:0.264583;stroke-linecap:round;stroke-linejoin:miter"
     d="M 0.92605099,0.66404217 H 3.3073009 c 0.14973,0 0.262,0.11226382 0.262,0.26199952 0,0.43423261 0.0867,1.14552261 0.19654,1.63267461 0.0153,0.067731 -0.0177,0.1535611 -0.0793,0.185676 -0.4595,0.2397228 -1.17637,0.2957322 -1.5699,0.2957322 -0.39536,0 -1.11116,-0.056398 -1.56994991,-0.2957616 -0.0615,-0.032101 -0.0945,-0.1179532 -0.0792,-0.1857301 0.1098,-0.4871498 0.19653,-1.1983833 0.19653,-1.63259111 0,-0.1497357 0.11226,-0.26199952 0.262,-0.26199952 z"
     sodipodi:nodetypes="ccccccsc" /><path
     style="opacity:0.4;fill:none;fill-opacity:1;stroke:#a62100;stroke-width:0.264583;stroke-linecap:butt;stroke-linejoin:miter;stroke-dasharray:none;stroke-opacity:1"
     d="m 1.0583409,1.190625 h 2.11666"
     id="path47" /><path
     style="opacity:0.4;fill:none;fill-opacity:1;stroke:#a62100;stroke-width:0.264583;stroke-linecap:butt;stroke-linejoin:miter;stroke-dasharray:none;stroke-opacity:1"
     d="m 1.0583409,1.7197917 h 1.85208"
     id="path48" /><g
     id="g76"><path
       id="path82"
       style="opacity:0.15;fill:#000000;fill-opacity:1;stroke:#000000;stroke-width:0.264583;stroke-linejoin:round;stroke-dasharray:none;stroke-opacity:1"
       d="M 1.3242187,1.3993489 0.34179688,2.3817708 h 0.45117187 c -7e-8,0.2907938 0.22921335,0.5294942 0.51757815,0.5292969 0.00408,-5e-7 0.00765,1.014e-4 0.011719,0 V 3.3622396 L 2.3046875,2.3798177 H 1.828125 C 1.8273799,2.0951886 1.6045744,1.8596576 1.3242187,1.8524739 Z" /><path
       id="path76"
       style="fill:#ffffff;fill-opacity:1;stroke:#ffffff;stroke-width:0.264583;stroke-linejoin:round;stroke-dasharray:none;stroke-opacity:1"
       d="M 1.3242187,1.1347656 0.34179688,2.1171875 h 0.45117187 c -7e-8,0.2907938 0.22921335,0.5294942 0.51757815,0.5292969 0.00408,-5e-7 0.00765,1.014e-4 0.011719,0 V 3.0976563 L 2.3046875,2.1152344 H 1.828125 C 1.8273799,1.8306053 1.6045744,1.5950743 1.3242187,1.5878906 Z" /><path
       style="fill:#7239b3;fill-opacity:1;stroke:#7239b3;stroke-width:0.264583;stroke-linejoin:round;stroke-dasharray:none;stroke-opacity:1"
       d="M 1.190625,1.9843752 H 0.66145829 L 1.1906251,1.4552085 Z"
       id="path74" /><path
       style="fill:#7239b3;fill-opacity:1;stroke:#7239b3;stroke-width:0.264583;stroke-linejoin:round;stroke-dasharray:none;stroke-opacity:1"
       d="M 1.4552084,2.2489585 V 2.7781251 L 1.9843751,2.2489585 Z"
       id="path75" /><ellipse
       style="fill:#cd9ef7;fill-opacity:1;stroke:#7239b3;stroke-width:0.264583;stroke-linejoin:round;stroke-dasharray:none;stroke-opacity:1"
       id="path73"
       cx="1.310776"
       cy="2.1166668"
       rx="0.38473421"
       ry="0.39687499" /><g
       id="g84"
       transform="rotate(-15,3.1757811,1.9847528)"><path
         id="path86"
         style="opacity:0.15;fill:#000000;fill-opacity:1;stroke:#000000;stroke-width:0.264583;stroke-linejoin:round;stroke-dasharray:none;stroke-opacity:1"
         d="m 3.1073021,1.5778335 c -0.2916615,0 -0.5312501,0.2368463 -0.53125,0.5292969 10e-8,0.066623 2.036e-4,0.1590168 -0.013672,0.2441406 -0.013876,0.085124 -0.043345,0.1566261 -0.078125,0.1914063 l -0.09375,0.09375 0.09375,0.09375 c 0.1774623,0.1774623 0.5020659,0.1718751 0.6230469,0.171875 0.1209815,1e-7 0.4455846,0.00559 0.6230468,-0.171875 l 0.09375,-0.09375 -0.09375,-0.09375 c -0.03501,-0.03501 -0.065778,-0.108202 -0.080078,-0.1933594 -0.0143,-0.085157 -0.013672,-0.1762152 -0.013672,-0.2421875 0,-0.2927963 -0.2365006,-0.5292969 -0.5292967,-0.5292969 z"
         sodipodi:nodetypes="scccccs" /><path
         id="path84"
         style="opacity:1;fill:#ffffff;fill-opacity:1;stroke:#ffffff;stroke-width:0.264583;stroke-linejoin:round;stroke-dasharray:none;stroke-opacity:1"
         d="m 3.1757813,1.3222656 c -0.2916615,0 -0.5312501,0.2368463 -0.53125,0.5292969 10e-8,0.066623 2.036e-4,0.1590168 -0.013672,0.2441406 -0.013876,0.085124 -0.043345,0.1566261 -0.078125,0.1914063 l -0.09375,0.09375 0.09375,0.09375 c 0.1774623,0.1774623 0.5020659,0.1718751 0.6230469,0.171875 0.1209815,1e-7 0.4455846,0.00559 0.6230468,-0.171875 l 0.09375,-0.09375 -0.09375,-0.09375 C 3.7638177,2.252099 3.7330499,2.1789074 3.71875,2.09375 3.70445,2.008593 3.705078,1.9175348 3.705078,1.8515625 c 0,-0.2927963 -0.2365006,-0.5292969 -0.5292967,-0.5292969 z"
         sodipodi:nodetypes="scccccs" /><path
         id="path83"
         style="opacity:1;fill:#fafafa;fill-opacity:1;stroke:#667885;stroke-width:0.264583;stroke-linejoin:round;stroke-dasharray:none;stroke-opacity:1"
         d="m 3.175,1.4552083 c -0.219188,0 -0.396875,0.1776871 -0.396875,0.3968751 2e-7,0.1322917 2e-7,0.3968751 -0.1322915,0.5291667 0.1322917,0.1322917 0.396875,0.1322917 0.5291665,0.1322916 0.1322919,10e-8 0.3968752,10e-8 0.5291669,-0.1322916 C 3.5718752,2.2489585 3.5718752,1.9843751 3.571875,1.8520834 3.571875,1.6328954 3.394188,1.4552083 3.175,1.4552083 Z"
         sodipodi:nodetypes="scccccs" /></g></g></svg>
